<?xml version="1.0" encoding="UTF-8"?><svg xmlns="http://www.w3.org/2000/svg" xmlns:xlink="http://www.w3.org/1999/xlink" stroke-dasharray="none" shape-rendering="auto" font-family="'Dialog'" width="682" text-rendering="auto" fill-opacity="1" contentScriptType="text/ecmascript" color-interpolation="auto" color-rendering="auto" preserveAspectRatio="xMidYMid meet" font-size="12" fill="black" stroke="black" image-rendering="auto" stroke-miterlimit="10" zoomAndPan="magnify" version="1.0" stroke-linecap="square" stroke-linejoin="miter" contentStyleType="text/css" font-style="normal" height="602" stroke-width="1" stroke-dashoffset="0" font-weight="normal" stroke-opacity="1">
<!--Generated by the Batik Graphics2D SVG Generator-->
<defs id="genericDefs"/>
<g>
<defs id="defs1">
<clipPath clipPathUnits="userSpaceOnUse" id="clipPath1">
<path d="M26 31 L656 31 L656 583 L26 583 L26 31 Z"/>
</clipPath>
<clipPath clipPathUnits="userSpaceOnUse" id="clipPath2">
<path d="M-1 -1 L683 -1 L683 603 L-1 603 L-1 -1 Z"/>
</clipPath>
</defs>
<g font-size="13" fill="white" text-rendering="geometricPrecision" stroke-linejoin="round" stroke="white" stroke-width="0" stroke-miterlimit="0">
<rect x="27" y="32" clip-path="url(#clipPath1)" width="628" height="550" stroke="none"/>
</g>
<g stroke-linecap="butt" font-size="13" fill="rgb(204,204,204)" text-rendering="geometricPrecision" stroke-dasharray="3,3" stroke="rgb(204,204,204)">
<line clip-path="url(#clipPath1)" fill="none" x1="27" x2="27" y1="32" y2="582"/>
<line clip-path="url(#clipPath1)" fill="none" x1="125" x2="125" y1="32" y2="582"/>
<line clip-path="url(#clipPath1)" fill="none" x1="224" x2="224" y1="32" y2="582"/>
<line clip-path="url(#clipPath1)" fill="none" x1="322" x2="322" y1="32" y2="582"/>
<line clip-path="url(#clipPath1)" fill="none" x1="421" x2="421" y1="32" y2="582"/>
<line clip-path="url(#clipPath1)" fill="none" x1="519" x2="519" y1="32" y2="582"/>
<line clip-path="url(#clipPath1)" fill="none" x1="618" x2="618" y1="32" y2="582"/>
<line clip-path="url(#clipPath1)" fill="none" x1="27" x2="655" y1="582" y2="582"/>
<line clip-path="url(#clipPath1)" fill="none" x1="27" x2="655" y1="513" y2="513"/>
<line clip-path="url(#clipPath1)" fill="none" x1="27" x2="655" y1="445" y2="445"/>
<line clip-path="url(#clipPath1)" fill="none" x1="27" x2="655" y1="377" y2="377"/>
<line clip-path="url(#clipPath1)" fill="none" x1="27" x2="655" y1="309" y2="309"/>
<line clip-path="url(#clipPath1)" fill="none" x1="27" x2="655" y1="241" y2="241"/>
<line clip-path="url(#clipPath1)" fill="none" x1="27" x2="655" y1="173" y2="173"/>
<line clip-path="url(#clipPath1)" fill="none" x1="27" x2="655" y1="105" y2="105"/>
<line clip-path="url(#clipPath1)" fill="none" x1="27" x2="655" y1="37" y2="37"/>
<line clip-path="url(#clipPath1)" fill="none" x1="75" x2="98" y1="578" y2="574" stroke-dasharray="none" stroke="rgb(0,0,139)"/>
<line clip-path="url(#clipPath1)" fill="none" x1="98" x2="103" y1="574" y2="577" stroke-dasharray="none" stroke="rgb(0,0,139)"/>
<line clip-path="url(#clipPath1)" fill="none" x1="103" x2="159" y1="577" y2="567" stroke-dasharray="none" stroke="rgb(0,0,139)"/>
<line clip-path="url(#clipPath1)" fill="none" x1="159" x2="167" y1="567" y2="561" stroke-dasharray="none" stroke="rgb(0,0,139)"/>
<line clip-path="url(#clipPath1)" fill="none" x1="84" x2="167" y1="509" y2="455" stroke-dasharray="none" stroke="rgb(238,0,0)"/>
<line clip-path="url(#clipPath1)" fill="none" x1="167" x2="397" y1="455" y2="338" stroke-dasharray="none" stroke="rgb(238,0,0)"/>
<line clip-path="url(#clipPath1)" fill="none" x1="384" x2="434" y1="187" y2="169" stroke-dasharray="none" stroke="rgb(0,100,0)"/>
<line clip-path="url(#clipPath1)" fill="none" x1="42" x2="51" y1="579" y2="565" stroke-dasharray="none" stroke="rgb(255,165,0)"/>
<line clip-path="url(#clipPath1)" fill="none" x1="51" x2="69" y1="565" y2="559" stroke-dasharray="none" stroke="rgb(255,165,0)"/>
<line clip-path="url(#clipPath1)" fill="none" x1="69" x2="153" y1="559" y2="529" stroke-dasharray="none" stroke="rgb(255,165,0)"/>
<line clip-path="url(#clipPath1)" fill="none" x1="84" x2="85" y1="536" y2="537" stroke-dasharray="none" stroke="green"/>
<line clip-path="url(#clipPath1)" fill="none" x1="85" x2="160" y1="537" y2="510" stroke-dasharray="none" stroke="green"/>
<line clip-path="url(#clipPath1)" fill="none" x1="33" x2="40" y1="575" y2="571" stroke-dasharray="none" stroke="rgb(169,169,169)"/>
<line clip-path="url(#clipPath1)" fill="none" x1="40" x2="62" y1="571" y2="566" stroke-dasharray="none" stroke="rgb(169,169,169)"/>
<line clip-path="url(#clipPath1)" fill="none" x1="62" x2="63" y1="566" y2="561" stroke-dasharray="none" stroke="rgb(169,169,169)"/>
<line clip-path="url(#clipPath1)" fill="none" x1="47" x2="144" y1="554" y2="510" stroke-dasharray="none" stroke="rgb(160,0,0)"/>
<line clip-path="url(#clipPath1)" fill="none" x1="144" x2="155" y1="510" y2="517" stroke-dasharray="none" stroke="rgb(160,0,0)"/>
<line clip-path="url(#clipPath1)" fill="none" x1="155" x2="156" y1="517" y2="494" stroke-dasharray="none" stroke="rgb(160,0,0)"/>
<line clip-path="url(#clipPath1)" fill="none" x1="156" x2="157" y1="494" y2="484" stroke-dasharray="none" stroke="rgb(160,0,0)"/>
<line clip-path="url(#clipPath1)" fill="none" x1="30" x2="45" y1="579" y2="580" stroke-dasharray="none" stroke="aqua"/>
<line clip-path="url(#clipPath1)" fill="none" x1="45" x2="122" y1="580" y2="554" stroke-dasharray="none" stroke="aqua"/>
<line clip-path="url(#clipPath1)" fill="none" x1="47" x2="176" y1="558" y2="477" stroke-dasharray="none" stroke="olive"/>
<line clip-path="url(#clipPath1)" fill="none" x1="176" x2="271" y1="477" y2="408" stroke-dasharray="none" stroke="olive"/>
<line clip-path="url(#clipPath1)" fill="none" x1="271" x2="304" y1="408" y2="429" stroke-dasharray="none" stroke="olive"/>
<line clip-path="url(#clipPath1)" fill="none" x1="304" x2="353" y1="429" y2="404" stroke-dasharray="none" stroke="olive"/>
<line clip-path="url(#clipPath1)" fill="none" x1="353" x2="354" y1="404" y2="387" stroke-dasharray="none" stroke="olive"/>
<line clip-path="url(#clipPath1)" fill="none" x1="354" x2="451" y1="387" y2="344" stroke-dasharray="none" stroke="olive"/>
<line clip-path="url(#clipPath1)" fill="none" x1="451" x2="525" y1="344" y2="300" stroke-dasharray="none" stroke="olive"/>
<line clip-path="url(#clipPath1)" fill="none" x1="91" x2="103" y1="572" y2="564" stroke-dasharray="none" stroke="rgb(128,128,255)"/>
<line clip-path="url(#clipPath1)" fill="none" x1="103" x2="112" y1="564" y2="555" stroke-dasharray="none" stroke="rgb(128,128,255)"/>
<line clip-path="url(#clipPath1)" fill="none" x1="29" x2="59" y1="580" y2="572" stroke-dasharray="none" stroke="black"/>
<line clip-path="url(#clipPath1)" fill="none" x1="59" x2="60" y1="572" y2="573" stroke-dasharray="none" stroke="black"/>
<line clip-path="url(#clipPath1)" fill="none" x1="60" x2="62" y1="573" y2="570" stroke-dasharray="none" stroke="black"/>
<line clip-path="url(#clipPath1)" fill="none" x1="62" x2="68" y1="570" y2="569" stroke-dasharray="none" stroke="black"/>
<line clip-path="url(#clipPath1)" fill="none" x1="91" x2="128" y1="521" y2="530" stroke-dasharray="none" stroke="rgb(160,32,240)"/>
<line clip-path="url(#clipPath1)" fill="none" x1="128" x2="178" y1="530" y2="504" stroke-dasharray="none" stroke="rgb(160,32,240)"/>
<line clip-path="url(#clipPath1)" fill="none" x1="29" x2="294" y1="579" y2="451" stroke-dasharray="none" stroke="rgb(0,0,139)"/>
<line clip-path="url(#clipPath1)" fill="none" x1="294" x2="647" y1="451" y2="265" stroke-dasharray="none" stroke="rgb(0,0,139)"/>
<line clip-path="url(#clipPath1)" fill="none" x1="48" x2="51" y1="568" y2="573" stroke-dasharray="none" stroke="rgb(238,0,0)"/>
<line clip-path="url(#clipPath1)" fill="none" x1="51" x2="69" y1="573" y2="558" stroke-dasharray="none" stroke="rgb(238,0,0)"/>
<line clip-path="url(#clipPath1)" fill="none" x1="69" x2="78" y1="558" y2="560" stroke-dasharray="none" stroke="rgb(238,0,0)"/>
<line clip-path="url(#clipPath1)" fill="none" x1="78" x2="88" y1="560" y2="548" stroke-dasharray="none" stroke="rgb(238,0,0)"/>
<line clip-path="url(#clipPath1)" fill="none" x1="88" x2="108" y1="548" y2="544" stroke-dasharray="none" stroke="rgb(238,0,0)"/>
<line clip-path="url(#clipPath1)" fill="none" x1="108" x2="109" y1="544" y2="534" stroke-dasharray="none" stroke="rgb(238,0,0)"/>
<line clip-path="url(#clipPath1)" fill="none" x1="109" x2="110" y1="534" y2="538" stroke-dasharray="none" stroke="rgb(238,0,0)"/>
<line clip-path="url(#clipPath1)" fill="none" x1="110" x2="115" y1="538" y2="542" stroke-dasharray="none" stroke="rgb(238,0,0)"/>
<line clip-path="url(#clipPath1)" fill="none" x1="115" x2="121" y1="542" y2="546" stroke-dasharray="none" stroke="rgb(238,0,0)"/>
<line clip-path="url(#clipPath1)" fill="none" x1="121" x2="142" y1="546" y2="541" stroke-dasharray="none" stroke="rgb(238,0,0)"/>
<line clip-path="url(#clipPath1)" fill="none" x1="35" x2="41" y1="572" y2="576" stroke-dasharray="none" stroke="rgb(0,100,0)"/>
<line clip-path="url(#clipPath1)" fill="none" x1="35" x2="43" y1="572" y2="571" stroke-dasharray="none" stroke="rgb(169,169,169)"/>
<line clip-path="url(#clipPath1)" fill="none" x1="43" x2="52" y1="571" y2="573" stroke-dasharray="none" stroke="rgb(169,169,169)"/>
<line clip-path="url(#clipPath1)" fill="none" x1="52" x2="82" y1="573" y2="564" stroke-dasharray="none" stroke="rgb(169,169,169)"/>
<line clip-path="url(#clipPath1)" fill="none" x1="82" x2="90" y1="564" y2="563" stroke-dasharray="none" stroke="rgb(169,169,169)"/>
<line clip-path="url(#clipPath1)" fill="none" x1="90" x2="97" y1="563" y2="564" stroke-dasharray="none" stroke="rgb(169,169,169)"/>
<line clip-path="url(#clipPath1)" fill="none" x1="97" x2="101" y1="564" y2="556" stroke-dasharray="none" stroke="rgb(169,169,169)"/>
<line clip-path="url(#clipPath1)" fill="none" x1="101" x2="103" y1="556" y2="557" stroke-dasharray="none" stroke="rgb(169,169,169)"/>
<line clip-path="url(#clipPath1)" fill="none" x1="103" x2="119" y1="557" y2="553" stroke-dasharray="none" stroke="rgb(169,169,169)"/>
<line clip-path="url(#clipPath1)" fill="none" x1="119" x2="220" y1="553" y2="535" stroke-dasharray="none" stroke="rgb(169,169,169)"/>
<line clip-path="url(#clipPath1)" fill="none" x1="220" x2="221" y1="535" y2="528" stroke-dasharray="none" stroke="rgb(169,169,169)"/>
<line clip-path="url(#clipPath1)" fill="none" x1="221" x2="329" y1="528" y2="511" stroke-dasharray="none" stroke="rgb(169,169,169)"/>
<rect x="27" y="32" clip-path="url(#clipPath2)" fill="none" width="628" stroke-dasharray="none" height="550" stroke="black"/>
</g>
<g text-rendering="geometricPrecision" font-size="10" font-family="'Arial'" stroke-linecap="butt">
<text xml:space="preserve" x="223" y="10" clip-path="url(#clipPath2)" stroke="none">mean(lifeTimeU2:vector) ResponseTimeNetwork.sink</text>
<line clip-path="url(#clipPath2)" fill="none" x1="27" x2="655" y1="30" y2="30"/>
<line clip-path="url(#clipPath2)" fill="none" x1="27" x2="655" y1="584" y2="584"/>
<line clip-path="url(#clipPath2)" fill="none" x1="27" x2="27" y1="26" y2="30"/>
<line clip-path="url(#clipPath2)" fill="none" x1="27" x2="27" y1="588" y2="584"/>
<text x="26" font-size="8" y="24" clip-path="url(#clipPath2)" stroke="none" xml:space="preserve">0</text>
<text x="26" font-size="8" y="597" clip-path="url(#clipPath2)" stroke="none" xml:space="preserve">0</text>
<line clip-path="url(#clipPath2)" fill="none" x1="76" x2="76" y1="28" y2="30"/>
<line clip-path="url(#clipPath2)" fill="none" x1="76" x2="76" y1="586" y2="584"/>
<line clip-path="url(#clipPath2)" fill="none" x1="125" x2="125" y1="26" y2="30"/>
<line clip-path="url(#clipPath2)" fill="none" x1="125" x2="125" y1="588" y2="584"/>
<text x="120" font-size="8" y="24" clip-path="url(#clipPath2)" stroke="none" xml:space="preserve">200</text>
<text x="120" font-size="8" y="597" clip-path="url(#clipPath2)" stroke="none" xml:space="preserve">200</text>
<line clip-path="url(#clipPath2)" fill="none" x1="174" x2="174" y1="28" y2="30"/>
<line clip-path="url(#clipPath2)" fill="none" x1="174" x2="174" y1="586" y2="584"/>
<line clip-path="url(#clipPath2)" fill="none" x1="224" x2="224" y1="26" y2="30"/>
<line clip-path="url(#clipPath2)" fill="none" x1="224" x2="224" y1="588" y2="584"/>
<text x="219" font-size="8" y="24" clip-path="url(#clipPath2)" stroke="none" xml:space="preserve">400</text>
<text x="219" font-size="8" y="597" clip-path="url(#clipPath2)" stroke="none" xml:space="preserve">400</text>
<line clip-path="url(#clipPath2)" fill="none" x1="273" x2="273" y1="28" y2="30"/>
<line clip-path="url(#clipPath2)" fill="none" x1="273" x2="273" y1="586" y2="584"/>
<line clip-path="url(#clipPath2)" fill="none" x1="322" x2="322" y1="26" y2="30"/>
<line clip-path="url(#clipPath2)" fill="none" x1="322" x2="322" y1="588" y2="584"/>
<text x="317" font-size="8" y="24" clip-path="url(#clipPath2)" stroke="none" xml:space="preserve">600</text>
<text x="317" font-size="8" y="597" clip-path="url(#clipPath2)" stroke="none" xml:space="preserve">600</text>
<line clip-path="url(#clipPath2)" fill="none" x1="371" x2="371" y1="28" y2="30"/>
<line clip-path="url(#clipPath2)" fill="none" x1="371" x2="371" y1="586" y2="584"/>
<line clip-path="url(#clipPath2)" fill="none" x1="421" x2="421" y1="26" y2="30"/>
<line clip-path="url(#clipPath2)" fill="none" x1="421" x2="421" y1="588" y2="584"/>
<text x="416" font-size="8" y="24" clip-path="url(#clipPath2)" stroke="none" xml:space="preserve">800</text>
<text x="416" font-size="8" y="597" clip-path="url(#clipPath2)" stroke="none" xml:space="preserve">800</text>
<line clip-path="url(#clipPath2)" fill="none" x1="470" x2="470" y1="28" y2="30"/>
<line clip-path="url(#clipPath2)" fill="none" x1="470" x2="470" y1="586" y2="584"/>
<line clip-path="url(#clipPath2)" fill="none" x1="519" x2="519" y1="26" y2="30"/>
<line clip-path="url(#clipPath2)" fill="none" x1="519" x2="519" y1="588" y2="584"/>
<text x="512" font-size="8" y="24" clip-path="url(#clipPath2)" stroke="none" xml:space="preserve">1000</text>
<text x="512" font-size="8" y="597" clip-path="url(#clipPath2)" stroke="none" xml:space="preserve">1000</text>
<line clip-path="url(#clipPath2)" fill="none" x1="569" x2="569" y1="28" y2="30"/>
<line clip-path="url(#clipPath2)" fill="none" x1="569" x2="569" y1="586" y2="584"/>
<line clip-path="url(#clipPath2)" fill="none" x1="618" x2="618" y1="26" y2="30"/>
<line clip-path="url(#clipPath2)" fill="none" x1="618" x2="618" y1="588" y2="584"/>
<text x="611" font-size="8" y="24" clip-path="url(#clipPath2)" stroke="none" xml:space="preserve">1200</text>
<text x="611" font-size="8" y="597" clip-path="url(#clipPath2)" stroke="none" xml:space="preserve">1200</text>
<line clip-path="url(#clipPath2)" fill="none" x1="25" x2="25" y1="32" y2="582"/>
<line clip-path="url(#clipPath2)" fill="none" x1="657" x2="657" y1="32" y2="582"/>
<line clip-path="url(#clipPath2)" fill="none" x1="21" x2="25" y1="582" y2="582"/>
<line clip-path="url(#clipPath2)" fill="none" x1="661" x2="657" y1="582" y2="582"/>
<text x="16" font-size="8" y="586" clip-path="url(#clipPath2)" stroke="none" xml:space="preserve">0</text>
<text x="664" font-size="8" y="586" clip-path="url(#clipPath2)" stroke="none" xml:space="preserve">0</text>
<line clip-path="url(#clipPath2)" fill="none" x1="23" x2="25" y1="568" y2="568"/>
<line clip-path="url(#clipPath2)" fill="none" x1="659" x2="657" y1="568" y2="568"/>
<line clip-path="url(#clipPath2)" fill="none" x1="23" x2="25" y1="554" y2="554"/>
<line clip-path="url(#clipPath2)" fill="none" x1="659" x2="657" y1="554" y2="554"/>
<line clip-path="url(#clipPath2)" fill="none" x1="23" x2="25" y1="541" y2="541"/>
<line clip-path="url(#clipPath2)" fill="none" x1="659" x2="657" y1="541" y2="541"/>
<line clip-path="url(#clipPath2)" fill="none" x1="23" x2="25" y1="527" y2="527"/>
<line clip-path="url(#clipPath2)" fill="none" x1="659" x2="657" y1="527" y2="527"/>
<line clip-path="url(#clipPath2)" fill="none" x1="21" x2="25" y1="513" y2="513"/>
<line clip-path="url(#clipPath2)" fill="none" x1="661" x2="657" y1="513" y2="513"/>
<text x="8" font-size="8" y="517" clip-path="url(#clipPath2)" stroke="none" xml:space="preserve">100</text>
<text x="664" font-size="8" y="517" clip-path="url(#clipPath2)" stroke="none" xml:space="preserve">100</text>
<line clip-path="url(#clipPath2)" fill="none" x1="23" x2="25" y1="500" y2="500"/>
<line clip-path="url(#clipPath2)" fill="none" x1="659" x2="657" y1="500" y2="500"/>
<line clip-path="url(#clipPath2)" fill="none" x1="23" x2="25" y1="486" y2="486"/>
<line clip-path="url(#clipPath2)" fill="none" x1="659" x2="657" y1="486" y2="486"/>
<line clip-path="url(#clipPath2)" fill="none" x1="23" x2="25" y1="473" y2="473"/>
<line clip-path="url(#clipPath2)" fill="none" x1="659" x2="657" y1="473" y2="473"/>
<line clip-path="url(#clipPath2)" fill="none" x1="23" x2="25" y1="459" y2="459"/>
<line clip-path="url(#clipPath2)" fill="none" x1="659" x2="657" y1="459" y2="459"/>
<line clip-path="url(#clipPath2)" fill="none" x1="21" x2="25" y1="445" y2="445"/>
<line clip-path="url(#clipPath2)" fill="none" x1="661" x2="657" y1="445" y2="445"/>
<text x="8" font-size="8" y="449" clip-path="url(#clipPath2)" stroke="none" xml:space="preserve">200</text>
<text x="664" font-size="8" y="449" clip-path="url(#clipPath2)" stroke="none" xml:space="preserve">200</text>
<line clip-path="url(#clipPath2)" fill="none" x1="23" x2="25" y1="432" y2="432"/>
<line clip-path="url(#clipPath2)" fill="none" x1="659" x2="657" y1="432" y2="432"/>
<line clip-path="url(#clipPath2)" fill="none" x1="23" x2="25" y1="418" y2="418"/>
<line clip-path="url(#clipPath2)" fill="none" x1="659" x2="657" y1="418" y2="418"/>
<line clip-path="url(#clipPath2)" fill="none" x1="23" x2="25" y1="405" y2="405"/>
<line clip-path="url(#clipPath2)" fill="none" x1="659" x2="657" y1="405" y2="405"/>
<line clip-path="url(#clipPath2)" fill="none" x1="23" x2="25" y1="391" y2="391"/>
<line clip-path="url(#clipPath2)" fill="none" x1="659" x2="657" y1="391" y2="391"/>
<line clip-path="url(#clipPath2)" fill="none" x1="21" x2="25" y1="377" y2="377"/>
<line clip-path="url(#clipPath2)" fill="none" x1="661" x2="657" y1="377" y2="377"/>
<text x="8" font-size="8" y="381" clip-path="url(#clipPath2)" stroke="none" xml:space="preserve">300</text>
<text x="664" font-size="8" y="381" clip-path="url(#clipPath2)" stroke="none" xml:space="preserve">300</text>
<line clip-path="url(#clipPath2)" fill="none" x1="23" x2="25" y1="364" y2="364"/>
<line clip-path="url(#clipPath2)" fill="none" x1="659" x2="657" y1="364" y2="364"/>
<line clip-path="url(#clipPath2)" fill="none" x1="23" x2="25" y1="350" y2="350"/>
<line clip-path="url(#clipPath2)" fill="none" x1="659" x2="657" y1="350" y2="350"/>
<line clip-path="url(#clipPath2)" fill="none" x1="23" x2="25" y1="337" y2="337"/>
<line clip-path="url(#clipPath2)" fill="none" x1="659" x2="657" y1="337" y2="337"/>
<line clip-path="url(#clipPath2)" fill="none" x1="23" x2="25" y1="323" y2="323"/>
<line clip-path="url(#clipPath2)" fill="none" x1="659" x2="657" y1="323" y2="323"/>
<line clip-path="url(#clipPath2)" fill="none" x1="21" x2="25" y1="309" y2="309"/>
<line clip-path="url(#clipPath2)" fill="none" x1="661" x2="657" y1="309" y2="309"/>
<text x="8" font-size="8" y="313" clip-path="url(#clipPath2)" stroke="none" xml:space="preserve">400</text>
<text x="664" font-size="8" y="313" clip-path="url(#clipPath2)" stroke="none" xml:space="preserve">400</text>
<line clip-path="url(#clipPath2)" fill="none" x1="23" x2="25" y1="296" y2="296"/>
<line clip-path="url(#clipPath2)" fill="none" x1="659" x2="657" y1="296" y2="296"/>
<line clip-path="url(#clipPath2)" fill="none" x1="23" x2="25" y1="282" y2="282"/>
<line clip-path="url(#clipPath2)" fill="none" x1="659" x2="657" y1="282" y2="282"/>
<line clip-path="url(#clipPath2)" fill="none" x1="23" x2="25" y1="268" y2="268"/>
<line clip-path="url(#clipPath2)" fill="none" x1="659" x2="657" y1="268" y2="268"/>
<line clip-path="url(#clipPath2)" fill="none" x1="23" x2="25" y1="255" y2="255"/>
<line clip-path="url(#clipPath2)" fill="none" x1="659" x2="657" y1="255" y2="255"/>
<line clip-path="url(#clipPath2)" fill="none" x1="21" x2="25" y1="241" y2="241"/>
<line clip-path="url(#clipPath2)" fill="none" x1="661" x2="657" y1="241" y2="241"/>
<text x="8" font-size="8" y="245" clip-path="url(#clipPath2)" stroke="none" xml:space="preserve">500</text>
<text x="664" font-size="8" y="245" clip-path="url(#clipPath2)" stroke="none" xml:space="preserve">500</text>
<line clip-path="url(#clipPath2)" fill="none" x1="23" x2="25" y1="228" y2="228"/>
<line clip-path="url(#clipPath2)" fill="none" x1="659" x2="657" y1="228" y2="228"/>
<line clip-path="url(#clipPath2)" fill="none" x1="23" x2="25" y1="214" y2="214"/>
<line clip-path="url(#clipPath2)" fill="none" x1="659" x2="657" y1="214" y2="214"/>
<line clip-path="url(#clipPath2)" fill="none" x1="23" x2="25" y1="200" y2="200"/>
<line clip-path="url(#clipPath2)" fill="none" x1="659" x2="657" y1="200" y2="200"/>
<line clip-path="url(#clipPath2)" fill="none" x1="23" x2="25" y1="187" y2="187"/>
<line clip-path="url(#clipPath2)" fill="none" x1="659" x2="657" y1="187" y2="187"/>
<line clip-path="url(#clipPath2)" fill="none" x1="21" x2="25" y1="173" y2="173"/>
<line clip-path="url(#clipPath2)" fill="none" x1="661" x2="657" y1="173" y2="173"/>
<text x="8" font-size="8" y="177" clip-path="url(#clipPath2)" stroke="none" xml:space="preserve">600</text>
<text x="664" font-size="8" y="177" clip-path="url(#clipPath2)" stroke="none" xml:space="preserve">600</text>
<line clip-path="url(#clipPath2)" fill="none" x1="23" x2="25" y1="160" y2="160"/>
<line clip-path="url(#clipPath2)" fill="none" x1="659" x2="657" y1="160" y2="160"/>
<line clip-path="url(#clipPath2)" fill="none" x1="23" x2="25" y1="146" y2="146"/>
<line clip-path="url(#clipPath2)" fill="none" x1="659" x2="657" y1="146" y2="146"/>
<line clip-path="url(#clipPath2)" fill="none" x1="23" x2="25" y1="132" y2="132"/>
<line clip-path="url(#clipPath2)" fill="none" x1="659" x2="657" y1="132" y2="132"/>
<line clip-path="url(#clipPath2)" fill="none" x1="23" x2="25" y1="119" y2="119"/>
<line clip-path="url(#clipPath2)" fill="none" x1="659" x2="657" y1="119" y2="119"/>
<line clip-path="url(#clipPath2)" fill="none" x1="21" x2="25" y1="105" y2="105"/>
<line clip-path="url(#clipPath2)" fill="none" x1="661" x2="657" y1="105" y2="105"/>
<text x="8" font-size="8" y="109" clip-path="url(#clipPath2)" stroke="none" xml:space="preserve">700</text>
<text x="664" font-size="8" y="109" clip-path="url(#clipPath2)" stroke="none" xml:space="preserve">700</text>
<line clip-path="url(#clipPath2)" fill="none" x1="23" x2="25" y1="92" y2="92"/>
<line clip-path="url(#clipPath2)" fill="none" x1="659" x2="657" y1="92" y2="92"/>
<line clip-path="url(#clipPath2)" fill="none" x1="23" x2="25" y1="78" y2="78"/>
<line clip-path="url(#clipPath2)" fill="none" x1="659" x2="657" y1="78" y2="78"/>
<line clip-path="url(#clipPath2)" fill="none" x1="23" x2="25" y1="64" y2="64"/>
<line clip-path="url(#clipPath2)" fill="none" x1="659" x2="657" y1="64" y2="64"/>
<line clip-path="url(#clipPath2)" fill="none" x1="23" x2="25" y1="51" y2="51"/>
<line clip-path="url(#clipPath2)" fill="none" x1="659" x2="657" y1="51" y2="51"/>
<line clip-path="url(#clipPath2)" fill="none" x1="21" x2="25" y1="37" y2="37"/>
<line clip-path="url(#clipPath2)" fill="none" x1="661" x2="657" y1="37" y2="37"/>
<text x="8" font-size="8" y="41" clip-path="url(#clipPath2)" stroke="none" xml:space="preserve">800</text>
<text x="664" font-size="8" y="41" clip-path="url(#clipPath2)" stroke="none" xml:space="preserve">800</text>
</g>
</g>
</svg>
