<?xml version="1.0" encoding="UTF-8"?><svg xmlns="http://www.w3.org/2000/svg" xmlns:xlink="http://www.w3.org/1999/xlink" stroke-dasharray="none" shape-rendering="auto" font-family="'Dialog'" width="682" text-rendering="auto" fill-opacity="1" contentScriptType="text/ecmascript" color-interpolation="auto" color-rendering="auto" preserveAspectRatio="xMidYMid meet" font-size="12" fill="black" stroke="black" image-rendering="auto" stroke-miterlimit="10" zoomAndPan="magnify" version="1.0" stroke-linecap="square" stroke-linejoin="miter" contentStyleType="text/css" font-style="normal" height="602" stroke-width="1" stroke-dashoffset="0" font-weight="normal" stroke-opacity="1">
<!--Generated by the Batik Graphics2D SVG Generator-->
<defs id="genericDefs"/>
<g>
<defs id="defs1">
<clipPath clipPathUnits="userSpaceOnUse" id="clipPath1">
<path d="M21 31 L661 31 L661 583 L21 583 L21 31 Z"/>
</clipPath>
<clipPath clipPathUnits="userSpaceOnUse" id="clipPath2">
<path d="M-1 -1 L683 -1 L683 603 L-1 603 L-1 -1 Z"/>
</clipPath>
</defs>
<g font-size="13" fill="white" text-rendering="geometricPrecision" stroke-linejoin="round" stroke="white" stroke-width="0" stroke-miterlimit="0">
<rect x="22" y="32" clip-path="url(#clipPath1)" width="638" height="550" stroke="none"/>
</g>
<g stroke-linecap="butt" font-size="13" fill="rgb(204,204,204)" text-rendering="geometricPrecision" stroke-dasharray="3,3" stroke="rgb(204,204,204)">
<line clip-path="url(#clipPath1)" fill="none" x1="22" x2="22" y1="32" y2="582"/>
<line clip-path="url(#clipPath1)" fill="none" x1="121" x2="121" y1="32" y2="582"/>
<line clip-path="url(#clipPath1)" fill="none" x1="220" x2="220" y1="32" y2="582"/>
<line clip-path="url(#clipPath1)" fill="none" x1="320" x2="320" y1="32" y2="582"/>
<line clip-path="url(#clipPath1)" fill="none" x1="419" x2="419" y1="32" y2="582"/>
<line clip-path="url(#clipPath1)" fill="none" x1="518" x2="518" y1="32" y2="582"/>
<line clip-path="url(#clipPath1)" fill="none" x1="618" x2="618" y1="32" y2="582"/>
<line clip-path="url(#clipPath1)" fill="none" x1="22" x2="660" y1="582" y2="582"/>
<line clip-path="url(#clipPath1)" fill="none" x1="22" x2="660" y1="508" y2="508"/>
<line clip-path="url(#clipPath1)" fill="none" x1="22" x2="660" y1="434" y2="434"/>
<line clip-path="url(#clipPath1)" fill="none" x1="22" x2="660" y1="361" y2="361"/>
<line clip-path="url(#clipPath1)" fill="none" x1="22" x2="660" y1="287" y2="287"/>
<line clip-path="url(#clipPath1)" fill="none" x1="22" x2="660" y1="214" y2="214"/>
<line clip-path="url(#clipPath1)" fill="none" x1="22" x2="660" y1="140" y2="140"/>
<line clip-path="url(#clipPath1)" fill="none" x1="22" x2="660" y1="67" y2="67"/>
<line clip-path="url(#clipPath1)" fill="none" x1="61" x2="212" y1="486" y2="437" stroke-dasharray="none" stroke="rgb(0,100,0)"/>
<rect x="22" y="32" clip-path="url(#clipPath2)" fill="none" width="638" stroke-dasharray="none" height="550" stroke="black"/>
</g>
<g text-rendering="geometricPrecision" font-size="10" font-family="'Arial'" stroke-linecap="butt">
<text xml:space="preserve" x="223" y="10" clip-path="url(#clipPath2)" stroke="none">mean(lifeTimeU2:vector) ResponseTimeNetwork.sink</text>
<line clip-path="url(#clipPath2)" fill="none" x1="22" x2="660" y1="30" y2="30"/>
<line clip-path="url(#clipPath2)" fill="none" x1="22" x2="660" y1="584" y2="584"/>
<line clip-path="url(#clipPath2)" fill="none" x1="22" x2="22" y1="26" y2="30"/>
<line clip-path="url(#clipPath2)" fill="none" x1="22" x2="22" y1="588" y2="584"/>
<text x="21" font-size="8" y="24" clip-path="url(#clipPath2)" stroke="none" xml:space="preserve">0</text>
<text x="21" font-size="8" y="597" clip-path="url(#clipPath2)" stroke="none" xml:space="preserve">0</text>
<line clip-path="url(#clipPath2)" fill="none" x1="71" x2="71" y1="28" y2="30"/>
<line clip-path="url(#clipPath2)" fill="none" x1="71" x2="71" y1="586" y2="584"/>
<line clip-path="url(#clipPath2)" fill="none" x1="121" x2="121" y1="26" y2="30"/>
<line clip-path="url(#clipPath2)" fill="none" x1="121" x2="121" y1="588" y2="584"/>
<text x="118" font-size="8" y="24" clip-path="url(#clipPath2)" stroke="none" xml:space="preserve">20</text>
<text x="118" font-size="8" y="597" clip-path="url(#clipPath2)" stroke="none" xml:space="preserve">20</text>
<line clip-path="url(#clipPath2)" fill="none" x1="171" x2="171" y1="28" y2="30"/>
<line clip-path="url(#clipPath2)" fill="none" x1="171" x2="171" y1="586" y2="584"/>
<line clip-path="url(#clipPath2)" fill="none" x1="220" x2="220" y1="26" y2="30"/>
<line clip-path="url(#clipPath2)" fill="none" x1="220" x2="220" y1="588" y2="584"/>
<text x="217" font-size="8" y="24" clip-path="url(#clipPath2)" stroke="none" xml:space="preserve">40</text>
<text x="217" font-size="8" y="597" clip-path="url(#clipPath2)" stroke="none" xml:space="preserve">40</text>
<line clip-path="url(#clipPath2)" fill="none" x1="270" x2="270" y1="28" y2="30"/>
<line clip-path="url(#clipPath2)" fill="none" x1="270" x2="270" y1="586" y2="584"/>
<line clip-path="url(#clipPath2)" fill="none" x1="320" x2="320" y1="26" y2="30"/>
<line clip-path="url(#clipPath2)" fill="none" x1="320" x2="320" y1="588" y2="584"/>
<text x="317" font-size="8" y="24" clip-path="url(#clipPath2)" stroke="none" xml:space="preserve">60</text>
<text x="317" font-size="8" y="597" clip-path="url(#clipPath2)" stroke="none" xml:space="preserve">60</text>
<line clip-path="url(#clipPath2)" fill="none" x1="369" x2="369" y1="28" y2="30"/>
<line clip-path="url(#clipPath2)" fill="none" x1="369" x2="369" y1="586" y2="584"/>
<line clip-path="url(#clipPath2)" fill="none" x1="419" x2="419" y1="26" y2="30"/>
<line clip-path="url(#clipPath2)" fill="none" x1="419" x2="419" y1="588" y2="584"/>
<text x="416" font-size="8" y="24" clip-path="url(#clipPath2)" stroke="none" xml:space="preserve">80</text>
<text x="416" font-size="8" y="597" clip-path="url(#clipPath2)" stroke="none" xml:space="preserve">80</text>
<line clip-path="url(#clipPath2)" fill="none" x1="469" x2="469" y1="28" y2="30"/>
<line clip-path="url(#clipPath2)" fill="none" x1="469" x2="469" y1="586" y2="584"/>
<line clip-path="url(#clipPath2)" fill="none" x1="518" x2="518" y1="26" y2="30"/>
<line clip-path="url(#clipPath2)" fill="none" x1="518" x2="518" y1="588" y2="584"/>
<text x="513" font-size="8" y="24" clip-path="url(#clipPath2)" stroke="none" xml:space="preserve">100</text>
<text x="513" font-size="8" y="597" clip-path="url(#clipPath2)" stroke="none" xml:space="preserve">100</text>
<line clip-path="url(#clipPath2)" fill="none" x1="568" x2="568" y1="28" y2="30"/>
<line clip-path="url(#clipPath2)" fill="none" x1="568" x2="568" y1="586" y2="584"/>
<line clip-path="url(#clipPath2)" fill="none" x1="618" x2="618" y1="26" y2="30"/>
<line clip-path="url(#clipPath2)" fill="none" x1="618" x2="618" y1="588" y2="584"/>
<text x="613" font-size="8" y="24" clip-path="url(#clipPath2)" stroke="none" xml:space="preserve">120</text>
<text x="613" font-size="8" y="597" clip-path="url(#clipPath2)" stroke="none" xml:space="preserve">120</text>
<line clip-path="url(#clipPath2)" fill="none" x1="20" x2="20" y1="32" y2="582"/>
<line clip-path="url(#clipPath2)" fill="none" x1="662" x2="662" y1="32" y2="582"/>
<line clip-path="url(#clipPath2)" fill="none" x1="16" x2="20" y1="582" y2="582"/>
<line clip-path="url(#clipPath2)" fill="none" x1="666" x2="662" y1="582" y2="582"/>
<text x="11" font-size="8" y="586" clip-path="url(#clipPath2)" stroke="none" xml:space="preserve">0</text>
<text x="669" font-size="8" y="586" clip-path="url(#clipPath2)" stroke="none" xml:space="preserve">0</text>
<line clip-path="url(#clipPath2)" fill="none" x1="18" x2="20" y1="567" y2="567"/>
<line clip-path="url(#clipPath2)" fill="none" x1="664" x2="662" y1="567" y2="567"/>
<line clip-path="url(#clipPath2)" fill="none" x1="18" x2="20" y1="552" y2="552"/>
<line clip-path="url(#clipPath2)" fill="none" x1="664" x2="662" y1="552" y2="552"/>
<line clip-path="url(#clipPath2)" fill="none" x1="18" x2="20" y1="537" y2="537"/>
<line clip-path="url(#clipPath2)" fill="none" x1="664" x2="662" y1="537" y2="537"/>
<line clip-path="url(#clipPath2)" fill="none" x1="18" x2="20" y1="523" y2="523"/>
<line clip-path="url(#clipPath2)" fill="none" x1="664" x2="662" y1="523" y2="523"/>
<line clip-path="url(#clipPath2)" fill="none" x1="16" x2="20" y1="508" y2="508"/>
<line clip-path="url(#clipPath2)" fill="none" x1="666" x2="662" y1="508" y2="508"/>
<text x="11" font-size="8" y="512" clip-path="url(#clipPath2)" stroke="none" xml:space="preserve">5</text>
<text x="669" font-size="8" y="512" clip-path="url(#clipPath2)" stroke="none" xml:space="preserve">5</text>
<line clip-path="url(#clipPath2)" fill="none" x1="18" x2="20" y1="493" y2="493"/>
<line clip-path="url(#clipPath2)" fill="none" x1="664" x2="662" y1="493" y2="493"/>
<line clip-path="url(#clipPath2)" fill="none" x1="18" x2="20" y1="479" y2="479"/>
<line clip-path="url(#clipPath2)" fill="none" x1="664" x2="662" y1="479" y2="479"/>
<line clip-path="url(#clipPath2)" fill="none" x1="18" x2="20" y1="464" y2="464"/>
<line clip-path="url(#clipPath2)" fill="none" x1="664" x2="662" y1="464" y2="464"/>
<line clip-path="url(#clipPath2)" fill="none" x1="18" x2="20" y1="449" y2="449"/>
<line clip-path="url(#clipPath2)" fill="none" x1="664" x2="662" y1="449" y2="449"/>
<line clip-path="url(#clipPath2)" fill="none" x1="16" x2="20" y1="434" y2="434"/>
<line clip-path="url(#clipPath2)" fill="none" x1="666" x2="662" y1="434" y2="434"/>
<text x="7" font-size="8" y="438" clip-path="url(#clipPath2)" stroke="none" xml:space="preserve">10</text>
<text x="669" font-size="8" y="438" clip-path="url(#clipPath2)" stroke="none" xml:space="preserve">10</text>
<line clip-path="url(#clipPath2)" fill="none" x1="18" x2="20" y1="420" y2="420"/>
<line clip-path="url(#clipPath2)" fill="none" x1="664" x2="662" y1="420" y2="420"/>
<line clip-path="url(#clipPath2)" fill="none" x1="18" x2="20" y1="405" y2="405"/>
<line clip-path="url(#clipPath2)" fill="none" x1="664" x2="662" y1="405" y2="405"/>
<line clip-path="url(#clipPath2)" fill="none" x1="18" x2="20" y1="390" y2="390"/>
<line clip-path="url(#clipPath2)" fill="none" x1="664" x2="662" y1="390" y2="390"/>
<line clip-path="url(#clipPath2)" fill="none" x1="18" x2="20" y1="376" y2="376"/>
<line clip-path="url(#clipPath2)" fill="none" x1="664" x2="662" y1="376" y2="376"/>
<line clip-path="url(#clipPath2)" fill="none" x1="16" x2="20" y1="361" y2="361"/>
<line clip-path="url(#clipPath2)" fill="none" x1="666" x2="662" y1="361" y2="361"/>
<text x="7" font-size="8" y="365" clip-path="url(#clipPath2)" stroke="none" xml:space="preserve">15</text>
<text x="669" font-size="8" y="365" clip-path="url(#clipPath2)" stroke="none" xml:space="preserve">15</text>
<line clip-path="url(#clipPath2)" fill="none" x1="18" x2="20" y1="346" y2="346"/>
<line clip-path="url(#clipPath2)" fill="none" x1="664" x2="662" y1="346" y2="346"/>
<line clip-path="url(#clipPath2)" fill="none" x1="18" x2="20" y1="331" y2="331"/>
<line clip-path="url(#clipPath2)" fill="none" x1="664" x2="662" y1="331" y2="331"/>
<line clip-path="url(#clipPath2)" fill="none" x1="18" x2="20" y1="317" y2="317"/>
<line clip-path="url(#clipPath2)" fill="none" x1="664" x2="662" y1="317" y2="317"/>
<line clip-path="url(#clipPath2)" fill="none" x1="18" x2="20" y1="302" y2="302"/>
<line clip-path="url(#clipPath2)" fill="none" x1="664" x2="662" y1="302" y2="302"/>
<line clip-path="url(#clipPath2)" fill="none" x1="16" x2="20" y1="287" y2="287"/>
<line clip-path="url(#clipPath2)" fill="none" x1="666" x2="662" y1="287" y2="287"/>
<text x="7" font-size="8" y="291" clip-path="url(#clipPath2)" stroke="none" xml:space="preserve">20</text>
<text x="669" font-size="8" y="291" clip-path="url(#clipPath2)" stroke="none" xml:space="preserve">20</text>
<line clip-path="url(#clipPath2)" fill="none" x1="18" x2="20" y1="273" y2="273"/>
<line clip-path="url(#clipPath2)" fill="none" x1="664" x2="662" y1="273" y2="273"/>
<line clip-path="url(#clipPath2)" fill="none" x1="18" x2="20" y1="258" y2="258"/>
<line clip-path="url(#clipPath2)" fill="none" x1="664" x2="662" y1="258" y2="258"/>
<line clip-path="url(#clipPath2)" fill="none" x1="18" x2="20" y1="243" y2="243"/>
<line clip-path="url(#clipPath2)" fill="none" x1="664" x2="662" y1="243" y2="243"/>
<line clip-path="url(#clipPath2)" fill="none" x1="18" x2="20" y1="229" y2="229"/>
<line clip-path="url(#clipPath2)" fill="none" x1="664" x2="662" y1="229" y2="229"/>
<line clip-path="url(#clipPath2)" fill="none" x1="16" x2="20" y1="214" y2="214"/>
<line clip-path="url(#clipPath2)" fill="none" x1="666" x2="662" y1="214" y2="214"/>
<text x="7" font-size="8" y="218" clip-path="url(#clipPath2)" stroke="none" xml:space="preserve">25</text>
<text x="669" font-size="8" y="218" clip-path="url(#clipPath2)" stroke="none" xml:space="preserve">25</text>
<line clip-path="url(#clipPath2)" fill="none" x1="18" x2="20" y1="199" y2="199"/>
<line clip-path="url(#clipPath2)" fill="none" x1="664" x2="662" y1="199" y2="199"/>
<line clip-path="url(#clipPath2)" fill="none" x1="18" x2="20" y1="184" y2="184"/>
<line clip-path="url(#clipPath2)" fill="none" x1="664" x2="662" y1="184" y2="184"/>
<line clip-path="url(#clipPath2)" fill="none" x1="18" x2="20" y1="170" y2="170"/>
<line clip-path="url(#clipPath2)" fill="none" x1="664" x2="662" y1="170" y2="170"/>
<line clip-path="url(#clipPath2)" fill="none" x1="18" x2="20" y1="155" y2="155"/>
<line clip-path="url(#clipPath2)" fill="none" x1="664" x2="662" y1="155" y2="155"/>
<line clip-path="url(#clipPath2)" fill="none" x1="16" x2="20" y1="140" y2="140"/>
<line clip-path="url(#clipPath2)" fill="none" x1="666" x2="662" y1="140" y2="140"/>
<text x="7" font-size="8" y="144" clip-path="url(#clipPath2)" stroke="none" xml:space="preserve">30</text>
<text x="669" font-size="8" y="144" clip-path="url(#clipPath2)" stroke="none" xml:space="preserve">30</text>
<line clip-path="url(#clipPath2)" fill="none" x1="18" x2="20" y1="126" y2="126"/>
<line clip-path="url(#clipPath2)" fill="none" x1="664" x2="662" y1="126" y2="126"/>
<line clip-path="url(#clipPath2)" fill="none" x1="18" x2="20" y1="111" y2="111"/>
<line clip-path="url(#clipPath2)" fill="none" x1="664" x2="662" y1="111" y2="111"/>
<line clip-path="url(#clipPath2)" fill="none" x1="18" x2="20" y1="96" y2="96"/>
<line clip-path="url(#clipPath2)" fill="none" x1="664" x2="662" y1="96" y2="96"/>
<line clip-path="url(#clipPath2)" fill="none" x1="18" x2="20" y1="81" y2="81"/>
<line clip-path="url(#clipPath2)" fill="none" x1="664" x2="662" y1="81" y2="81"/>
<line clip-path="url(#clipPath2)" fill="none" x1="16" x2="20" y1="67" y2="67"/>
<line clip-path="url(#clipPath2)" fill="none" x1="666" x2="662" y1="67" y2="67"/>
<text x="7" font-size="8" y="71" clip-path="url(#clipPath2)" stroke="none" xml:space="preserve">35</text>
<text x="669" font-size="8" y="71" clip-path="url(#clipPath2)" stroke="none" xml:space="preserve">35</text>
<line clip-path="url(#clipPath2)" fill="none" x1="18" x2="20" y1="52" y2="52"/>
<line clip-path="url(#clipPath2)" fill="none" x1="664" x2="662" y1="52" y2="52"/>
<line clip-path="url(#clipPath2)" fill="none" x1="18" x2="20" y1="37" y2="37"/>
<line clip-path="url(#clipPath2)" fill="none" x1="664" x2="662" y1="37" y2="37"/>
</g>
</g>
</svg>
