<?xml version="1.0" encoding="UTF-8"?><svg xmlns="http://www.w3.org/2000/svg" xmlns:xlink="http://www.w3.org/1999/xlink" stroke-dasharray="none" shape-rendering="auto" font-family="'Dialog'" width="682" text-rendering="auto" fill-opacity="1" contentScriptType="text/ecmascript" color-interpolation="auto" color-rendering="auto" preserveAspectRatio="xMidYMid meet" font-size="12" fill="black" stroke="black" image-rendering="auto" stroke-miterlimit="10" zoomAndPan="magnify" version="1.0" stroke-linecap="square" stroke-linejoin="miter" contentStyleType="text/css" font-style="normal" height="602" stroke-width="1" stroke-dashoffset="0" font-weight="normal" stroke-opacity="1">
<!--Generated by the Batik Graphics2D SVG Generator-->
<defs id="genericDefs"/>
<g>
<defs id="defs1">
<clipPath clipPathUnits="userSpaceOnUse" id="clipPath1">
<path d="M34 31 L648 31 L648 583 L34 583 L34 31 Z"/>
</clipPath>
<clipPath clipPathUnits="userSpaceOnUse" id="clipPath2">
<path d="M-1 -1 L683 -1 L683 603 L-1 603 L-1 -1 Z"/>
</clipPath>
</defs>
<g font-size="13" fill="white" text-rendering="geometricPrecision" stroke-linejoin="round" stroke="white" stroke-width="0" stroke-miterlimit="0">
<rect x="35" y="32" clip-path="url(#clipPath1)" width="612" height="550" stroke="none"/>
</g>
<g stroke-linecap="butt" font-size="13" fill="rgb(204,204,204)" text-rendering="geometricPrecision" stroke-dasharray="3,3" stroke="rgb(204,204,204)">
<line clip-path="url(#clipPath1)" fill="none" x1="35" x2="35" y1="32" y2="582"/>
<line clip-path="url(#clipPath1)" fill="none" x1="121" x2="121" y1="32" y2="582"/>
<line clip-path="url(#clipPath1)" fill="none" x1="208" x2="208" y1="32" y2="582"/>
<line clip-path="url(#clipPath1)" fill="none" x1="295" x2="295" y1="32" y2="582"/>
<line clip-path="url(#clipPath1)" fill="none" x1="382" x2="382" y1="32" y2="582"/>
<line clip-path="url(#clipPath1)" fill="none" x1="469" x2="469" y1="32" y2="582"/>
<line clip-path="url(#clipPath1)" fill="none" x1="556" x2="556" y1="32" y2="582"/>
<line clip-path="url(#clipPath1)" fill="none" x1="643" x2="643" y1="32" y2="582"/>
<line clip-path="url(#clipPath1)" fill="none" x1="35" x2="647" y1="582" y2="582"/>
<line clip-path="url(#clipPath1)" fill="none" x1="35" x2="647" y1="520" y2="520"/>
<line clip-path="url(#clipPath1)" fill="none" x1="35" x2="647" y1="459" y2="459"/>
<line clip-path="url(#clipPath1)" fill="none" x1="35" x2="647" y1="398" y2="398"/>
<line clip-path="url(#clipPath1)" fill="none" x1="35" x2="647" y1="337" y2="337"/>
<line clip-path="url(#clipPath1)" fill="none" x1="35" x2="647" y1="276" y2="276"/>
<line clip-path="url(#clipPath1)" fill="none" x1="35" x2="647" y1="215" y2="215"/>
<line clip-path="url(#clipPath1)" fill="none" x1="35" x2="647" y1="154" y2="154"/>
<line clip-path="url(#clipPath1)" fill="none" x1="35" x2="647" y1="92" y2="92"/>
<line clip-path="url(#clipPath1)" fill="none" x1="35" x2="37" y1="581" y2="581" stroke-dasharray="none" stroke="rgb(0,0,139)"/>
<line clip-path="url(#clipPath1)" fill="none" x1="37" x2="38" y1="581" y2="581" stroke-dasharray="none" stroke="rgb(0,0,139)"/>
<line clip-path="url(#clipPath1)" fill="none" x1="35" x2="38" y1="581" y2="581" stroke-dasharray="none" stroke="rgb(238,0,0)"/>
<line clip-path="url(#clipPath1)" fill="none" x1="38" x2="40" y1="581" y2="580" stroke-dasharray="none" stroke="rgb(238,0,0)"/>
<line clip-path="url(#clipPath1)" fill="none" x1="40" x2="41" y1="580" y2="579" stroke-dasharray="none" stroke="rgb(238,0,0)"/>
</g>
<g stroke-linecap="butt" font-size="13" fill="rgb(238,0,0)" text-rendering="geometricPrecision" shape-rendering="crispEdges" stroke="rgb(238,0,0)">
<line clip-path="url(#clipPath1)" fill="none" x1="41" x2="41" y1="579" y2="580"/>
<line clip-path="url(#clipPath1)" fill="none" x1="41" x2="42" y1="580" y2="579" shape-rendering="auto"/>
<line clip-path="url(#clipPath1)" fill="none" x1="42" x2="46" y1="579" y2="579" shape-rendering="auto"/>
<line clip-path="url(#clipPath1)" fill="none" x1="57" x2="59" y1="575" y2="575" shape-rendering="auto" stroke="rgb(0,100,0)"/>
<line clip-path="url(#clipPath1)" fill="none" x1="59" x2="59" y1="575" y2="576" stroke="rgb(0,100,0)"/>
<line clip-path="url(#clipPath1)" fill="none" x1="59" x2="59" y1="575" y2="574" stroke="rgb(0,100,0)"/>
<line clip-path="url(#clipPath1)" fill="none" x1="59" x2="60" y1="574" y2="574" shape-rendering="auto" stroke="rgb(0,100,0)"/>
<line clip-path="url(#clipPath1)" fill="none" x1="60" x2="62" y1="574" y2="575" shape-rendering="auto" stroke="rgb(0,100,0)"/>
<line clip-path="url(#clipPath1)" fill="none" x1="62" x2="98" y1="575" y2="573" shape-rendering="auto" stroke="rgb(0,100,0)"/>
<line clip-path="url(#clipPath1)" fill="none" x1="98" x2="98" y1="573" y2="571" stroke="rgb(0,100,0)"/>
<line clip-path="url(#clipPath1)" fill="none" x1="98" x2="99" y1="571" y2="569" shape-rendering="auto" stroke="rgb(0,100,0)"/>
<line clip-path="url(#clipPath1)" fill="none" x1="99" x2="100" y1="569" y2="569" shape-rendering="auto" stroke="rgb(0,100,0)"/>
<line clip-path="url(#clipPath1)" fill="none" x1="100" x2="101" y1="569" y2="569" shape-rendering="auto" stroke="rgb(0,100,0)"/>
<line clip-path="url(#clipPath1)" fill="none" x1="101" x2="101" y1="569" y2="567" stroke="rgb(0,100,0)"/>
<line clip-path="url(#clipPath1)" fill="none" x1="101" x2="102" y1="567" y2="565" shape-rendering="auto" stroke="rgb(0,100,0)"/>
<line clip-path="url(#clipPath1)" fill="none" x1="102" x2="106" y1="565" y2="565" shape-rendering="auto" stroke="rgb(0,100,0)"/>
<line clip-path="url(#clipPath1)" fill="none" x1="106" x2="117" y1="565" y2="563" shape-rendering="auto" stroke="rgb(0,100,0)"/>
<line clip-path="url(#clipPath1)" fill="none" x1="117" x2="119" y1="563" y2="564" shape-rendering="auto" stroke="rgb(0,100,0)"/>
<line clip-path="url(#clipPath1)" fill="none" x1="119" x2="121" y1="564" y2="563" shape-rendering="auto" stroke="rgb(0,100,0)"/>
<line clip-path="url(#clipPath1)" fill="none" x1="121" x2="141" y1="563" y2="561" shape-rendering="auto" stroke="rgb(0,100,0)"/>
<line clip-path="url(#clipPath1)" fill="none" x1="141" x2="157" y1="561" y2="560" shape-rendering="auto" stroke="rgb(0,100,0)"/>
<line clip-path="url(#clipPath1)" fill="none" x1="157" x2="160" y1="560" y2="559" shape-rendering="auto" stroke="rgb(0,100,0)"/>
<line clip-path="url(#clipPath1)" fill="none" x1="160" x2="161" y1="559" y2="558" shape-rendering="auto" stroke="rgb(0,100,0)"/>
<line clip-path="url(#clipPath1)" fill="none" x1="161" x2="162" y1="558" y2="558" shape-rendering="auto" stroke="rgb(0,100,0)"/>
<line clip-path="url(#clipPath1)" fill="none" x1="162" x2="163" y1="558" y2="558" shape-rendering="auto" stroke="rgb(0,100,0)"/>
<line clip-path="url(#clipPath1)" fill="none" x1="163" x2="164" y1="558" y2="558" shape-rendering="auto" stroke="rgb(0,100,0)"/>
<line clip-path="url(#clipPath1)" fill="none" x1="164" x2="165" y1="558" y2="557" shape-rendering="auto" stroke="rgb(0,100,0)"/>
<line clip-path="url(#clipPath1)" fill="none" x1="165" x2="166" y1="557" y2="557" shape-rendering="auto" stroke="rgb(0,100,0)"/>
<line clip-path="url(#clipPath1)" fill="none" x1="166" x2="168" y1="557" y2="556" shape-rendering="auto" stroke="rgb(0,100,0)"/>
<line clip-path="url(#clipPath1)" fill="none" x1="168" x2="168" y1="556" y2="555" stroke="rgb(0,100,0)"/>
<line clip-path="url(#clipPath1)" fill="none" x1="168" x2="175" y1="555" y2="555" shape-rendering="auto" stroke="rgb(0,100,0)"/>
<line clip-path="url(#clipPath1)" fill="none" x1="83" x2="84" y1="548" y2="548" shape-rendering="auto" stroke="rgb(255,165,0)"/>
<line clip-path="url(#clipPath1)" fill="none" x1="84" x2="84" y1="548" y2="550" stroke="rgb(255,165,0)"/>
<line clip-path="url(#clipPath1)" fill="none" x1="84" x2="86" y1="550" y2="552" shape-rendering="auto" stroke="rgb(255,165,0)"/>
<line clip-path="url(#clipPath1)" fill="none" x1="86" x2="88" y1="552" y2="554" shape-rendering="auto" stroke="rgb(255,165,0)"/>
<line clip-path="url(#clipPath1)" fill="none" x1="88" x2="89" y1="554" y2="556" shape-rendering="auto" stroke="rgb(255,165,0)"/>
<line clip-path="url(#clipPath1)" fill="none" x1="89" x2="89" y1="556" y2="558" stroke="rgb(255,165,0)"/>
<line clip-path="url(#clipPath1)" fill="none" x1="89" x2="89" y1="558" y2="560" stroke="rgb(255,165,0)"/>
<line clip-path="url(#clipPath1)" fill="none" x1="89" x2="90" y1="560" y2="561" shape-rendering="auto" stroke="rgb(255,165,0)"/>
<line clip-path="url(#clipPath1)" fill="none" x1="90" x2="91" y1="561" y2="560" shape-rendering="auto" stroke="rgb(255,165,0)"/>
<line clip-path="url(#clipPath1)" fill="none" x1="91" x2="92" y1="560" y2="559" shape-rendering="auto" stroke="rgb(255,165,0)"/>
<line clip-path="url(#clipPath1)" fill="none" x1="92" x2="95" y1="559" y2="559" shape-rendering="auto" stroke="rgb(255,165,0)"/>
<line clip-path="url(#clipPath1)" fill="none" x1="95" x2="96" y1="559" y2="559" shape-rendering="auto" stroke="rgb(255,165,0)"/>
<line clip-path="url(#clipPath1)" fill="none" x1="96" x2="96" y1="559" y2="560" stroke="rgb(255,165,0)"/>
<line clip-path="url(#clipPath1)" fill="none" x1="96" x2="97" y1="560" y2="560" shape-rendering="auto" stroke="rgb(255,165,0)"/>
<line clip-path="url(#clipPath1)" fill="none" x1="97" x2="98" y1="560" y2="559" shape-rendering="auto" stroke="rgb(255,165,0)"/>
<line clip-path="url(#clipPath1)" fill="none" x1="98" x2="103" y1="559" y2="558" shape-rendering="auto" stroke="rgb(255,165,0)"/>
<line clip-path="url(#clipPath1)" fill="none" x1="103" x2="106" y1="558" y2="559" shape-rendering="auto" stroke="rgb(255,165,0)"/>
<line clip-path="url(#clipPath1)" fill="none" x1="106" x2="106" y1="559" y2="558" stroke="rgb(255,165,0)"/>
<line clip-path="url(#clipPath1)" fill="none" x1="106" x2="107" y1="558" y2="559" shape-rendering="auto" stroke="rgb(255,165,0)"/>
<line clip-path="url(#clipPath1)" fill="none" x1="107" x2="108" y1="559" y2="557" shape-rendering="auto" stroke="rgb(255,165,0)"/>
<line clip-path="url(#clipPath1)" fill="none" x1="108" x2="108" y1="557" y2="556" stroke="rgb(255,165,0)"/>
<line clip-path="url(#clipPath1)" fill="none" x1="108" x2="109" y1="556" y2="557" shape-rendering="auto" stroke="rgb(255,165,0)"/>
<line clip-path="url(#clipPath1)" fill="none" x1="109" x2="111" y1="557" y2="558" shape-rendering="auto" stroke="rgb(255,165,0)"/>
<line clip-path="url(#clipPath1)" fill="none" x1="111" x2="113" y1="558" y2="557" shape-rendering="auto" stroke="rgb(255,165,0)"/>
<line clip-path="url(#clipPath1)" fill="none" x1="113" x2="119" y1="557" y2="558" shape-rendering="auto" stroke="rgb(255,165,0)"/>
<line clip-path="url(#clipPath1)" fill="none" x1="42" x2="88" y1="578" y2="563" shape-rendering="auto" stroke="green"/>
<line clip-path="url(#clipPath1)" fill="none" x1="88" x2="88" y1="563" y2="558" stroke="green"/>
<line clip-path="url(#clipPath1)" fill="none" x1="88" x2="90" y1="558" y2="557" shape-rendering="auto" stroke="green"/>
<line clip-path="url(#clipPath1)" fill="none" x1="90" x2="111" y1="557" y2="556" shape-rendering="auto" stroke="green"/>
<line clip-path="url(#clipPath1)" fill="none" x1="111" x2="114" y1="556" y2="552" shape-rendering="auto" stroke="green"/>
<line clip-path="url(#clipPath1)" fill="none" x1="114" x2="115" y1="552" y2="549" shape-rendering="auto" stroke="green"/>
<line clip-path="url(#clipPath1)" fill="none" x1="115" x2="115" y1="549" y2="547" stroke="green"/>
<line clip-path="url(#clipPath1)" fill="none" x1="115" x2="115" y1="547" y2="546" stroke="green"/>
<line clip-path="url(#clipPath1)" fill="none" x1="115" x2="116" y1="546" y2="544" shape-rendering="auto" stroke="green"/>
<line clip-path="url(#clipPath1)" fill="none" x1="116" x2="167" y1="544" y2="543" shape-rendering="auto" stroke="green"/>
<line clip-path="url(#clipPath1)" fill="none" x1="167" x2="167" y1="543" y2="542" stroke="green"/>
<line clip-path="url(#clipPath1)" fill="none" x1="167" x2="168" y1="542" y2="541" shape-rendering="auto" stroke="green"/>
<line clip-path="url(#clipPath1)" fill="none" x1="168" x2="169" y1="541" y2="541" shape-rendering="auto" stroke="green"/>
<line clip-path="url(#clipPath1)" fill="none" x1="169" x2="169" y1="541" y2="540" stroke="green"/>
<line clip-path="url(#clipPath1)" fill="none" x1="169" x2="170" y1="540" y2="540" shape-rendering="auto" stroke="green"/>
<line clip-path="url(#clipPath1)" fill="none" x1="170" x2="498" y1="540" y2="527" shape-rendering="auto" stroke="green"/>
<line clip-path="url(#clipPath1)" fill="none" x1="38" x2="49" y1="580" y2="579" shape-rendering="auto" stroke="rgb(169,169,169)"/>
<line clip-path="url(#clipPath1)" fill="none" x1="49" x2="50" y1="579" y2="579" shape-rendering="auto" stroke="rgb(169,169,169)"/>
<line clip-path="url(#clipPath1)" fill="none" x1="50" x2="51" y1="579" y2="579" shape-rendering="auto" stroke="rgb(169,169,169)"/>
<line clip-path="url(#clipPath1)" fill="none" x1="51" x2="55" y1="579" y2="578" shape-rendering="auto" stroke="rgb(169,169,169)"/>
<line clip-path="url(#clipPath1)" fill="none" x1="55" x2="56" y1="578" y2="577" shape-rendering="auto" stroke="rgb(169,169,169)"/>
<line clip-path="url(#clipPath1)" fill="none" x1="56" x2="57" y1="577" y2="577" shape-rendering="auto" stroke="rgb(169,169,169)"/>
<line clip-path="url(#clipPath1)" fill="none" x1="57" x2="58" y1="577" y2="577" shape-rendering="auto" stroke="rgb(169,169,169)"/>
<line clip-path="url(#clipPath1)" fill="none" x1="58" x2="58" y1="577" y2="576" stroke="rgb(169,169,169)"/>
<line clip-path="url(#clipPath1)" fill="none" x1="58" x2="59" y1="577" y2="577" shape-rendering="auto" stroke="rgb(169,169,169)"/>
<line clip-path="url(#clipPath1)" fill="none" x1="59" x2="60" y1="577" y2="577" shape-rendering="auto" stroke="rgb(169,169,169)"/>
<line clip-path="url(#clipPath1)" fill="none" x1="60" x2="60" y1="577" y2="578" stroke="rgb(169,169,169)"/>
<line clip-path="url(#clipPath1)" fill="none" x1="60" x2="61" y1="578" y2="577" shape-rendering="auto" stroke="rgb(169,169,169)"/>
<line clip-path="url(#clipPath1)" fill="none" x1="61" x2="61" y1="577" y2="578" stroke="rgb(169,169,169)"/>
<line clip-path="url(#clipPath1)" fill="none" x1="61" x2="62" y1="577" y2="576" shape-rendering="auto" stroke="rgb(169,169,169)"/>
<line clip-path="url(#clipPath1)" fill="none" x1="62" x2="63" y1="576" y2="577" shape-rendering="auto" stroke="rgb(169,169,169)"/>
<line clip-path="url(#clipPath1)" fill="none" x1="39" x2="42" y1="579" y2="578" shape-rendering="auto" stroke="rgb(160,0,0)"/>
<line clip-path="url(#clipPath1)" fill="none" x1="42" x2="43" y1="578" y2="578" shape-rendering="auto" stroke="rgb(160,0,0)"/>
<line clip-path="url(#clipPath1)" fill="none" x1="35" x2="97" y1="581" y2="563" shape-rendering="auto" stroke="teal"/>
<line clip-path="url(#clipPath1)" fill="none" x1="97" x2="99" y1="563" y2="557" shape-rendering="auto" stroke="teal"/>
<line clip-path="url(#clipPath1)" fill="none" x1="99" x2="99" y1="557" y2="554" stroke="teal"/>
<line clip-path="url(#clipPath1)" fill="none" x1="99" x2="100" y1="554" y2="553" shape-rendering="auto" stroke="teal"/>
<line clip-path="url(#clipPath1)" fill="none" x1="48" x2="54" y1="573" y2="573" shape-rendering="auto" stroke="aqua"/>
<line clip-path="url(#clipPath1)" fill="none" x1="54" x2="54" y1="573" y2="574" stroke="aqua"/>
<line clip-path="url(#clipPath1)" fill="none" x1="54" x2="55" y1="574" y2="574" shape-rendering="auto" stroke="aqua"/>
<line clip-path="url(#clipPath1)" fill="none" x1="55" x2="56" y1="574" y2="575" shape-rendering="auto" stroke="aqua"/>
<line clip-path="url(#clipPath1)" fill="none" x1="56" x2="56" y1="575" y2="574" stroke="aqua"/>
<line clip-path="url(#clipPath1)" fill="none" x1="56" x2="57" y1="574" y2="575" shape-rendering="auto" stroke="aqua"/>
<line clip-path="url(#clipPath1)" fill="none" x1="57" x2="58" y1="575" y2="574" shape-rendering="auto" stroke="aqua"/>
<line clip-path="url(#clipPath1)" fill="none" x1="58" x2="121" y1="574" y2="570" shape-rendering="auto" stroke="aqua"/>
<line clip-path="url(#clipPath1)" fill="none" x1="121" x2="121" y1="570" y2="567" stroke="aqua"/>
<line clip-path="url(#clipPath1)" fill="none" x1="36" x2="40" y1="581" y2="581" shape-rendering="auto" stroke="olive"/>
<line clip-path="url(#clipPath1)" fill="none" x1="40" x2="168" y1="581" y2="551" shape-rendering="auto" stroke="olive"/>
<line clip-path="url(#clipPath1)" fill="none" x1="168" x2="169" y1="551" y2="537" shape-rendering="auto" stroke="olive"/>
<line clip-path="url(#clipPath1)" fill="none" x1="169" x2="171" y1="537" y2="529" shape-rendering="auto" stroke="olive"/>
<line clip-path="url(#clipPath1)" fill="none" x1="171" x2="216" y1="529" y2="520" shape-rendering="auto" stroke="olive"/>
<line clip-path="url(#clipPath1)" fill="none" x1="216" x2="216" y1="520" y2="513" stroke="olive"/>
<line clip-path="url(#clipPath1)" fill="none" x1="216" x2="223" y1="513" y2="509" shape-rendering="auto" stroke="olive"/>
<line clip-path="url(#clipPath1)" fill="none" x1="37" x2="40" y1="581" y2="581" shape-rendering="auto" stroke="rgb(128,128,255)"/>
<line clip-path="url(#clipPath1)" fill="none" x1="40" x2="41" y1="581" y2="581" shape-rendering="auto" stroke="rgb(128,128,255)"/>
<line clip-path="url(#clipPath1)" fill="none" x1="41" x2="42" y1="581" y2="581" shape-rendering="auto" stroke="rgb(128,128,255)"/>
<line clip-path="url(#clipPath1)" fill="none" x1="42" x2="48" y1="581" y2="581" shape-rendering="auto" stroke="rgb(128,128,255)"/>
<line clip-path="url(#clipPath1)" fill="none" x1="48" x2="55" y1="581" y2="581" shape-rendering="auto" stroke="rgb(128,128,255)"/>
<line clip-path="url(#clipPath1)" fill="none" x1="55" x2="75" y1="581" y2="580" shape-rendering="auto" stroke="rgb(128,128,255)"/>
<line clip-path="url(#clipPath1)" fill="none" x1="75" x2="77" y1="580" y2="579" shape-rendering="auto" stroke="rgb(128,128,255)"/>
<line clip-path="url(#clipPath1)" fill="none" x1="77" x2="86" y1="579" y2="579" shape-rendering="auto" stroke="rgb(128,128,255)"/>
<line clip-path="url(#clipPath1)" fill="none" x1="86" x2="86" y1="579" y2="578" stroke="rgb(128,128,255)"/>
<line clip-path="url(#clipPath1)" fill="none" x1="86" x2="87" y1="578" y2="577" shape-rendering="auto" stroke="rgb(128,128,255)"/>
<line clip-path="url(#clipPath1)" fill="none" x1="87" x2="89" y1="577" y2="577" shape-rendering="auto" stroke="rgb(128,128,255)"/>
<line clip-path="url(#clipPath1)" fill="none" x1="89" x2="95" y1="577" y2="576" shape-rendering="auto" stroke="rgb(128,128,255)"/>
<line clip-path="url(#clipPath1)" fill="none" x1="95" x2="96" y1="576" y2="575" shape-rendering="auto" stroke="rgb(128,128,255)"/>
<line clip-path="url(#clipPath1)" fill="none" x1="96" x2="97" y1="575" y2="574" shape-rendering="auto" stroke="rgb(128,128,255)"/>
<line clip-path="url(#clipPath1)" fill="none" x1="97" x2="98" y1="574" y2="574" shape-rendering="auto" stroke="rgb(128,128,255)"/>
<line clip-path="url(#clipPath1)" fill="none" x1="98" x2="99" y1="574" y2="574" shape-rendering="auto" stroke="rgb(128,128,255)"/>
<line clip-path="url(#clipPath1)" fill="none" x1="99" x2="100" y1="574" y2="574" shape-rendering="auto" stroke="rgb(128,128,255)"/>
<line clip-path="url(#clipPath1)" fill="none" x1="100" x2="102" y1="574" y2="574" shape-rendering="auto" stroke="rgb(128,128,255)"/>
<line clip-path="url(#clipPath1)" fill="none" x1="102" x2="114" y1="574" y2="574" shape-rendering="auto" stroke="rgb(128,128,255)"/>
<line clip-path="url(#clipPath1)" fill="none" x1="114" x2="117" y1="574" y2="574" shape-rendering="auto" stroke="rgb(128,128,255)"/>
<line clip-path="url(#clipPath1)" fill="none" x1="117" x2="117" y1="574" y2="573" stroke="rgb(128,128,255)"/>
<line clip-path="url(#clipPath1)" fill="none" x1="117" x2="117" y1="573" y2="572" stroke="rgb(128,128,255)"/>
<line clip-path="url(#clipPath1)" fill="none" x1="117" x2="118" y1="572" y2="572" shape-rendering="auto" stroke="rgb(128,128,255)"/>
<line clip-path="url(#clipPath1)" fill="none" x1="118" x2="119" y1="572" y2="572" shape-rendering="auto" stroke="rgb(128,128,255)"/>
<line clip-path="url(#clipPath1)" fill="none" x1="119" x2="203" y1="572" y2="569" shape-rendering="auto" stroke="rgb(128,128,255)"/>
<line clip-path="url(#clipPath1)" fill="none" x1="203" x2="208" y1="569" y2="567" shape-rendering="auto" stroke="rgb(128,128,255)"/>
<line clip-path="url(#clipPath1)" fill="none" x1="208" x2="216" y1="567" y2="565" shape-rendering="auto" stroke="rgb(128,128,255)"/>
<line clip-path="url(#clipPath1)" fill="none" x1="216" x2="216" y1="565" y2="563" stroke="rgb(128,128,255)"/>
<line clip-path="url(#clipPath1)" fill="none" x1="216" x2="219" y1="563" y2="562" shape-rendering="auto" stroke="rgb(128,128,255)"/>
<line clip-path="url(#clipPath1)" fill="none" x1="219" x2="220" y1="562" y2="561" shape-rendering="auto" stroke="rgb(128,128,255)"/>
<line clip-path="url(#clipPath1)" fill="none" x1="220" x2="233" y1="561" y2="560" shape-rendering="auto" stroke="rgb(128,128,255)"/>
<line clip-path="url(#clipPath1)" fill="none" x1="233" x2="236" y1="560" y2="559" shape-rendering="auto" stroke="rgb(128,128,255)"/>
<line clip-path="url(#clipPath1)" fill="none" x1="236" x2="251" y1="559" y2="558" shape-rendering="auto" stroke="rgb(128,128,255)"/>
<line clip-path="url(#clipPath1)" fill="none" x1="37" x2="38" y1="580" y2="580" shape-rendering="auto" stroke="yellow"/>
<line clip-path="url(#clipPath1)" fill="none" x1="38" x2="40" y1="580" y2="580" shape-rendering="auto" stroke="yellow"/>
<line clip-path="url(#clipPath1)" fill="none" x1="38" x2="53" y1="581" y2="578" shape-rendering="auto" stroke="rgb(160,32,240)"/>
<line clip-path="url(#clipPath1)" fill="none" x1="53" x2="54" y1="578" y2="578" shape-rendering="auto" stroke="rgb(160,32,240)"/>
<line clip-path="url(#clipPath1)" fill="none" x1="54" x2="55" y1="578" y2="578" shape-rendering="auto" stroke="rgb(160,32,240)"/>
<line clip-path="url(#clipPath1)" fill="none" x1="36" x2="41" y1="581" y2="581" shape-rendering="auto" stroke="rgb(0,0,139)"/>
<line clip-path="url(#clipPath1)" fill="none" x1="41" x2="43" y1="581" y2="580" shape-rendering="auto" stroke="rgb(0,0,139)"/>
<line clip-path="url(#clipPath1)" fill="none" x1="43" x2="44" y1="580" y2="580" shape-rendering="auto" stroke="rgb(0,0,139)"/>
<line clip-path="url(#clipPath1)" fill="none" x1="44" x2="48" y1="580" y2="579" shape-rendering="auto" stroke="rgb(0,0,139)"/>
<line clip-path="url(#clipPath1)" fill="none" x1="48" x2="53" y1="579" y2="579" shape-rendering="auto" stroke="rgb(0,0,139)"/>
<line clip-path="url(#clipPath1)" fill="none" x1="95" x2="96" y1="557" y2="558" shape-rendering="auto"/>
<line clip-path="url(#clipPath1)" fill="none" x1="96" x2="96" y1="558" y2="559"/>
<line clip-path="url(#clipPath1)" fill="none" x1="96" x2="97" y1="559" y2="559" shape-rendering="auto"/>
<line clip-path="url(#clipPath1)" fill="none" x1="97" x2="109" y1="559" y2="558" shape-rendering="auto"/>
<line clip-path="url(#clipPath1)" fill="none" x1="109" x2="110" y1="558" y2="558" shape-rendering="auto"/>
<rect x="35" y="32" clip-path="url(#clipPath2)" fill="none" width="612" shape-rendering="auto" height="550" stroke="black"/>
</g>
<g text-rendering="geometricPrecision" font-size="10" font-family="'Arial'" stroke-linecap="butt">
<text xml:space="preserve" x="223" y="10" clip-path="url(#clipPath2)" stroke="none">mean(lifeTimeU2:vector) ResponseTimeNetwork.sink</text>
<line clip-path="url(#clipPath2)" fill="none" x1="35" x2="647" y1="30" y2="30"/>
<line clip-path="url(#clipPath2)" fill="none" x1="35" x2="647" y1="584" y2="584"/>
<line clip-path="url(#clipPath2)" fill="none" x1="35" x2="35" y1="26" y2="30"/>
<line clip-path="url(#clipPath2)" fill="none" x1="35" x2="35" y1="588" y2="584"/>
<text x="34" font-size="8" y="24" clip-path="url(#clipPath2)" stroke="none" xml:space="preserve">0</text>
<text x="34" font-size="8" y="597" clip-path="url(#clipPath2)" stroke="none" xml:space="preserve">0</text>
<line clip-path="url(#clipPath2)" fill="none" x1="78" x2="78" y1="28" y2="30"/>
<line clip-path="url(#clipPath2)" fill="none" x1="78" x2="78" y1="586" y2="584"/>
<line clip-path="url(#clipPath2)" fill="none" x1="121" x2="121" y1="26" y2="30"/>
<line clip-path="url(#clipPath2)" fill="none" x1="121" x2="121" y1="588" y2="584"/>
<text x="114" font-size="8" y="24" clip-path="url(#clipPath2)" stroke="none" xml:space="preserve">2000</text>
<text x="114" font-size="8" y="597" clip-path="url(#clipPath2)" stroke="none" xml:space="preserve">2000</text>
<line clip-path="url(#clipPath2)" fill="none" x1="165" x2="165" y1="28" y2="30"/>
<line clip-path="url(#clipPath2)" fill="none" x1="165" x2="165" y1="586" y2="584"/>
<line clip-path="url(#clipPath2)" fill="none" x1="208" x2="208" y1="26" y2="30"/>
<line clip-path="url(#clipPath2)" fill="none" x1="208" x2="208" y1="588" y2="584"/>
<text x="201" font-size="8" y="24" clip-path="url(#clipPath2)" stroke="none" xml:space="preserve">4000</text>
<text x="201" font-size="8" y="597" clip-path="url(#clipPath2)" stroke="none" xml:space="preserve">4000</text>
<line clip-path="url(#clipPath2)" fill="none" x1="252" x2="252" y1="28" y2="30"/>
<line clip-path="url(#clipPath2)" fill="none" x1="252" x2="252" y1="586" y2="584"/>
<line clip-path="url(#clipPath2)" fill="none" x1="295" x2="295" y1="26" y2="30"/>
<line clip-path="url(#clipPath2)" fill="none" x1="295" x2="295" y1="588" y2="584"/>
<text x="288" font-size="8" y="24" clip-path="url(#clipPath2)" stroke="none" xml:space="preserve">6000</text>
<text x="288" font-size="8" y="597" clip-path="url(#clipPath2)" stroke="none" xml:space="preserve">6000</text>
<line clip-path="url(#clipPath2)" fill="none" x1="339" x2="339" y1="28" y2="30"/>
<line clip-path="url(#clipPath2)" fill="none" x1="339" x2="339" y1="586" y2="584"/>
<line clip-path="url(#clipPath2)" fill="none" x1="382" x2="382" y1="26" y2="30"/>
<line clip-path="url(#clipPath2)" fill="none" x1="382" x2="382" y1="588" y2="584"/>
<text x="375" font-size="8" y="24" clip-path="url(#clipPath2)" stroke="none" xml:space="preserve">8000</text>
<text x="375" font-size="8" y="597" clip-path="url(#clipPath2)" stroke="none" xml:space="preserve">8000</text>
<line clip-path="url(#clipPath2)" fill="none" x1="426" x2="426" y1="28" y2="30"/>
<line clip-path="url(#clipPath2)" fill="none" x1="426" x2="426" y1="586" y2="584"/>
<line clip-path="url(#clipPath2)" fill="none" x1="469" x2="469" y1="26" y2="30"/>
<line clip-path="url(#clipPath2)" fill="none" x1="469" x2="469" y1="588" y2="584"/>
<text x="460" font-size="8" y="24" clip-path="url(#clipPath2)" stroke="none" xml:space="preserve">10000</text>
<text x="460" font-size="8" y="597" clip-path="url(#clipPath2)" stroke="none" xml:space="preserve">10000</text>
<line clip-path="url(#clipPath2)" fill="none" x1="513" x2="513" y1="28" y2="30"/>
<line clip-path="url(#clipPath2)" fill="none" x1="513" x2="513" y1="586" y2="584"/>
<line clip-path="url(#clipPath2)" fill="none" x1="556" x2="556" y1="26" y2="30"/>
<line clip-path="url(#clipPath2)" fill="none" x1="556" x2="556" y1="588" y2="584"/>
<text x="547" font-size="8" y="24" clip-path="url(#clipPath2)" stroke="none" xml:space="preserve">12000</text>
<text x="547" font-size="8" y="597" clip-path="url(#clipPath2)" stroke="none" xml:space="preserve">12000</text>
<line clip-path="url(#clipPath2)" fill="none" x1="600" x2="600" y1="28" y2="30"/>
<line clip-path="url(#clipPath2)" fill="none" x1="600" x2="600" y1="586" y2="584"/>
<line clip-path="url(#clipPath2)" fill="none" x1="643" x2="643" y1="26" y2="30"/>
<line clip-path="url(#clipPath2)" fill="none" x1="643" x2="643" y1="588" y2="584"/>
<text x="634" font-size="8" y="24" clip-path="url(#clipPath2)" stroke="none" xml:space="preserve">14000</text>
<text x="634" font-size="8" y="597" clip-path="url(#clipPath2)" stroke="none" xml:space="preserve">14000</text>
<line clip-path="url(#clipPath2)" fill="none" x1="33" x2="33" y1="32" y2="582"/>
<line clip-path="url(#clipPath2)" fill="none" x1="649" x2="649" y1="32" y2="582"/>
<line clip-path="url(#clipPath2)" fill="none" x1="29" x2="33" y1="582" y2="582"/>
<line clip-path="url(#clipPath2)" fill="none" x1="653" x2="649" y1="582" y2="582"/>
<text x="24" font-size="8" y="586" clip-path="url(#clipPath2)" stroke="none" xml:space="preserve">0</text>
<text x="656" font-size="8" y="586" clip-path="url(#clipPath2)" stroke="none" xml:space="preserve">0</text>
<line clip-path="url(#clipPath2)" fill="none" x1="31" x2="33" y1="551" y2="551"/>
<line clip-path="url(#clipPath2)" fill="none" x1="651" x2="649" y1="551" y2="551"/>
<line clip-path="url(#clipPath2)" fill="none" x1="29" x2="33" y1="520" y2="520"/>
<line clip-path="url(#clipPath2)" fill="none" x1="653" x2="649" y1="520" y2="520"/>
<text x="12" font-size="8" y="524" clip-path="url(#clipPath2)" stroke="none" xml:space="preserve">2000</text>
<text x="656" font-size="8" y="524" clip-path="url(#clipPath2)" stroke="none" xml:space="preserve">2000</text>
<line clip-path="url(#clipPath2)" fill="none" x1="31" x2="33" y1="490" y2="490"/>
<line clip-path="url(#clipPath2)" fill="none" x1="651" x2="649" y1="490" y2="490"/>
<line clip-path="url(#clipPath2)" fill="none" x1="29" x2="33" y1="459" y2="459"/>
<line clip-path="url(#clipPath2)" fill="none" x1="653" x2="649" y1="459" y2="459"/>
<text x="12" font-size="8" y="463" clip-path="url(#clipPath2)" stroke="none" xml:space="preserve">4000</text>
<text x="656" font-size="8" y="463" clip-path="url(#clipPath2)" stroke="none" xml:space="preserve">4000</text>
<line clip-path="url(#clipPath2)" fill="none" x1="31" x2="33" y1="429" y2="429"/>
<line clip-path="url(#clipPath2)" fill="none" x1="651" x2="649" y1="429" y2="429"/>
<line clip-path="url(#clipPath2)" fill="none" x1="29" x2="33" y1="398" y2="398"/>
<line clip-path="url(#clipPath2)" fill="none" x1="653" x2="649" y1="398" y2="398"/>
<text x="12" font-size="8" y="402" clip-path="url(#clipPath2)" stroke="none" xml:space="preserve">6000</text>
<text x="656" font-size="8" y="402" clip-path="url(#clipPath2)" stroke="none" xml:space="preserve">6000</text>
<line clip-path="url(#clipPath2)" fill="none" x1="31" x2="33" y1="368" y2="368"/>
<line clip-path="url(#clipPath2)" fill="none" x1="651" x2="649" y1="368" y2="368"/>
<line clip-path="url(#clipPath2)" fill="none" x1="29" x2="33" y1="337" y2="337"/>
<line clip-path="url(#clipPath2)" fill="none" x1="653" x2="649" y1="337" y2="337"/>
<text x="12" font-size="8" y="341" clip-path="url(#clipPath2)" stroke="none" xml:space="preserve">8000</text>
<text x="656" font-size="8" y="341" clip-path="url(#clipPath2)" stroke="none" xml:space="preserve">8000</text>
<line clip-path="url(#clipPath2)" fill="none" x1="31" x2="33" y1="306" y2="306"/>
<line clip-path="url(#clipPath2)" fill="none" x1="651" x2="649" y1="306" y2="306"/>
<line clip-path="url(#clipPath2)" fill="none" x1="29" x2="33" y1="276" y2="276"/>
<line clip-path="url(#clipPath2)" fill="none" x1="653" x2="649" y1="276" y2="276"/>
<text x="8" font-size="8" y="280" clip-path="url(#clipPath2)" stroke="none" xml:space="preserve">10000</text>
<text x="656" font-size="8" y="280" clip-path="url(#clipPath2)" stroke="none" xml:space="preserve">10000</text>
<line clip-path="url(#clipPath2)" fill="none" x1="31" x2="33" y1="245" y2="245"/>
<line clip-path="url(#clipPath2)" fill="none" x1="651" x2="649" y1="245" y2="245"/>
<line clip-path="url(#clipPath2)" fill="none" x1="29" x2="33" y1="215" y2="215"/>
<line clip-path="url(#clipPath2)" fill="none" x1="653" x2="649" y1="215" y2="215"/>
<text x="8" font-size="8" y="219" clip-path="url(#clipPath2)" stroke="none" xml:space="preserve">12000</text>
<text x="656" font-size="8" y="219" clip-path="url(#clipPath2)" stroke="none" xml:space="preserve">12000</text>
<line clip-path="url(#clipPath2)" fill="none" x1="31" x2="33" y1="184" y2="184"/>
<line clip-path="url(#clipPath2)" fill="none" x1="651" x2="649" y1="184" y2="184"/>
<line clip-path="url(#clipPath2)" fill="none" x1="29" x2="33" y1="154" y2="154"/>
<line clip-path="url(#clipPath2)" fill="none" x1="653" x2="649" y1="154" y2="154"/>
<text x="8" font-size="8" y="158" clip-path="url(#clipPath2)" stroke="none" xml:space="preserve">14000</text>
<text x="656" font-size="8" y="158" clip-path="url(#clipPath2)" stroke="none" xml:space="preserve">14000</text>
<line clip-path="url(#clipPath2)" fill="none" x1="31" x2="33" y1="123" y2="123"/>
<line clip-path="url(#clipPath2)" fill="none" x1="651" x2="649" y1="123" y2="123"/>
<line clip-path="url(#clipPath2)" fill="none" x1="29" x2="33" y1="92" y2="92"/>
<line clip-path="url(#clipPath2)" fill="none" x1="653" x2="649" y1="92" y2="92"/>
<text x="8" font-size="8" y="96" clip-path="url(#clipPath2)" stroke="none" xml:space="preserve">16000</text>
<text x="656" font-size="8" y="96" clip-path="url(#clipPath2)" stroke="none" xml:space="preserve">16000</text>
<line clip-path="url(#clipPath2)" fill="none" x1="31" x2="33" y1="62" y2="62"/>
<line clip-path="url(#clipPath2)" fill="none" x1="651" x2="649" y1="62" y2="62"/>
</g>
</g>
</svg>
